<svg width="1076" height="1076" viewBox="0 0 1076 1076" fill="none" xmlns="http://www.w3.org/2000/svg">
<path d="M269.001 89.666H807.001V179.333H269.001V89.666ZM179.335 268.999V179.333H269.001V268.999H179.335ZM179.335 806.999V268.999H89.668V806.999H179.335ZM269.001 896.666V806.999H179.335V896.666H269.001ZM807.001 896.666V986.333H269.001V896.666H807.001ZM896.668 806.999V896.666H807.001V806.999H896.668ZM896.668 268.999H986.335V806.999H896.668V268.999ZM896.668 268.999V179.333H807.001V268.999H896.668ZM493.168 224.166H582.835V313.833H717.335V403.499H448.335V493.166H717.335V762.166H582.835V851.833H493.168V762.166H358.668V672.499H627.668V582.833H358.668V313.833H493.168V224.166Z" fill="white"/>
<path d="M493.168 224.166H582.835V313.833H717.335V403.499H448.335V493.166H717.335V762.166H582.835V851.833H493.168V762.166H358.668V672.499H627.668V582.833H358.668V313.833H493.168V224.166Z" fill="#7867B1"/>
</svg>
