<svg width="1920" height="556" viewBox="0 0 1920 556" fill="none" xmlns="http://www.w3.org/2000/svg">
<g clip-path="url(#clip0_90_29)">
<rect width="2415.26" height="157.728" transform="translate(-233.883) rotate(9.53147)" fill="#FFC804"/>
<path d="M28.0914 115.761L-0.752327 110.919L1.01277 100.405L60.2819 110.355L62.7343 95.7474L-18.2141 82.1577L-29.8356 151.383L20.5943 159.849C49.438 164.691 57.7148 156.418 59.8235 143.857L59.9797 142.927C62.0416 130.645 56.6559 120.557 28.0914 115.761ZM-5.62587 139.949L-3.20472 125.527L25.4529 130.338C35.6877 132.056 38.0261 135.223 37.3231 139.41L37.2763 139.689C36.5734 143.876 33.2666 146.478 23.0317 144.76L-5.62587 139.949ZM124.362 104.85L120.361 104.178C76.537 96.8209 67.9349 117.858 65.8574 130.233L65.3888 133.025C63.3426 145.213 64.5094 168.465 108.333 175.822L112.334 176.494C155.972 183.82 164.761 162.24 166.807 150.051L167.276 147.259C169.353 134.885 167.906 112.16 124.362 104.85ZM119.503 121.254C142.857 125.175 145.807 136.098 144.463 144.099L144.245 145.402C142.901 153.404 136.375 163.214 113.114 159.309C89.7603 155.388 86.9357 143.721 88.2634 135.813L88.4509 134.696C89.7942 126.694 95.7768 117.271 119.503 121.254ZM190.108 188.307L194.684 161.045L241.206 168.855L236.63 196.117L258.309 199.757L269.93 130.532L248.251 126.892L244.018 152.107L197.496 144.297L201.729 119.082L180.05 115.442L168.428 184.667L190.108 188.307ZM272.835 131.019L297.496 184.141C298.13 185.491 298.626 186.531 298.438 187.647L298.422 187.74C298.282 188.578 297.707 189.151 295.753 188.823L283.565 186.776L280.753 203.524L294.337 205.805C307.643 208.039 311.075 204.119 320.006 193.66L360.762 145.781L338.99 142.125L313.811 172.434L297.957 135.237L272.835 131.019ZM423.831 198.844C423.1 200.348 418.977 210.658 396.554 206.893C376.363 203.504 372.701 191.696 374.06 183.601L374.248 182.484C375.7 173.831 382.007 165.324 402.756 168.807C424.808 172.509 425.882 182.638 426.127 184.593L449.109 188.451L449.281 187.428C450.547 179.317 447.717 159.135 407.522 152.387L403.707 151.747C362.861 144.889 353.732 165.647 351.623 178.208L351.17 180.906C349.092 193.281 351.577 216.658 391.679 223.391L395.494 224.031C435.131 230.685 445.172 212.472 446.641 203.726L446.812 202.703L423.831 198.844ZM468.96 191.019L461.759 233.912L483.253 237.52L494.874 168.295L477.94 165.453C473.543 172.272 467.194 176.468 455.051 175.29L452.864 188.316L468.96 191.019ZM543.163 191.518C558.422 194.079 560.141 196.951 559.688 199.649C559.297 201.975 558.194 203.416 548.484 203.699C544.157 203.834 537.13 204.089 531.732 204.331C498.507 205.641 494.054 220.774 492.335 231.009L491.023 238.825L575.507 253.008L579.756 227.7L558.449 224.123L556.949 233.055L513.126 225.698C513.438 223.837 515.955 220.242 532.815 220.107C538.275 220.066 546.588 220.123 552.327 220.13C575.67 220.126 580.765 214.285 582.514 203.864L582.545 203.678C584.388 192.698 579.516 181.262 546.951 175.794L543.229 175.17C507.407 169.156 501.214 185.527 499.871 193.529L499.746 194.274L522.356 198.069C523.12 194.658 525.764 188.597 543.163 191.518ZM670.441 245.89L670.55 245.239C672.346 234.539 665.513 228.512 660.18 226.086C664.834 225.72 672.049 223.2 673.268 215.943L673.361 215.384C674.611 207.941 672.081 196.801 635.049 190.584L631.141 189.928C594.389 183.758 588.817 199.852 587.77 206.086L587.614 207.016L610.224 210.812C610.846 209.386 611.924 202.965 630.533 206.09C649.514 209.276 650.409 213.062 649.987 215.574C649.597 217.9 647.919 219.914 640.196 218.618L616.842 214.697L614.14 230.794L638.611 234.902C646.798 236.277 647.834 239.225 647.381 241.923C646.913 244.714 644.968 249.458 625.243 246.147C606.262 242.96 606.536 233.918 606.631 232.212L583.835 228.385L583.71 229.129C582.523 236.201 582.919 255.496 620.602 261.822L624.975 262.556C659.122 268.289 668.472 257.613 670.441 245.89ZM759.814 238.604L730.971 233.761L732.736 223.247L792.005 233.198L794.457 218.59L713.509 205L701.887 274.225L752.317 282.691C781.161 287.533 789.438 279.261 791.547 266.7L791.703 265.769C793.765 253.487 788.379 243.399 759.814 238.604ZM726.097 262.791L728.518 248.369L757.176 253.18C767.411 254.899 769.749 258.066 769.046 262.253L768.999 262.532C768.296 266.719 764.99 269.321 754.755 267.602L726.097 262.791ZM856.085 227.692L852.084 227.02C808.26 219.663 799.658 240.701 797.58 253.076L797.112 255.867C795.066 268.056 796.232 291.307 840.056 298.664L844.057 299.336C887.695 306.662 896.484 285.082 898.53 272.893L898.999 270.102C901.076 257.727 899.629 235.002 856.085 227.692ZM851.226 244.096C874.58 248.017 877.53 258.94 876.186 266.942L875.968 268.244C874.624 276.246 868.098 286.057 844.837 282.151C821.483 278.231 818.659 266.564 819.986 258.655L820.174 257.538C821.517 249.537 827.5 240.113 851.226 244.096ZM921.831 311.149L926.407 283.887L972.929 291.697L968.353 318.959L990.032 322.599L1001.65 253.374L979.974 249.734L975.741 274.949L929.219 267.139L933.452 241.924L911.773 238.285L900.151 307.51L921.831 311.149ZM1004.56 253.862L1029.22 306.983C1029.85 308.333 1030.35 309.373 1030.16 310.489L1030.15 310.582C1030 311.42 1029.43 311.993 1027.48 311.665L1015.29 309.619L1012.48 326.367L1026.06 328.647C1039.37 330.881 1042.8 326.961 1051.73 316.502L1092.48 268.623L1070.71 264.968L1045.53 295.276L1029.68 258.079L1004.56 253.862ZM1155.55 321.687C1154.82 323.19 1150.7 333.5 1128.28 329.736C1108.09 326.346 1104.42 314.538 1105.78 306.443L1105.97 305.327C1107.42 296.674 1113.73 288.166 1134.48 291.649C1156.53 295.351 1157.6 305.481 1157.85 307.435L1180.83 311.294L1181 310.27C1182.27 302.16 1179.44 281.977 1139.24 275.229L1135.43 274.589C1094.58 267.732 1085.45 288.489 1083.35 301.05L1082.89 303.748C1080.82 316.123 1083.3 339.5 1123.4 346.233L1127.22 346.873C1166.85 353.528 1176.9 335.315 1178.36 326.569L1178.54 325.545L1155.55 321.687ZM1200.68 313.861L1193.48 356.754L1214.98 360.363L1226.6 291.138L1209.66 288.295C1205.27 295.114 1198.92 299.31 1186.77 298.132L1184.59 311.159L1200.68 313.861ZM1274.89 314.36C1290.15 316.922 1291.86 319.793 1291.41 322.491C1291.02 324.817 1289.92 326.259 1280.21 326.542C1275.88 326.676 1268.85 326.932 1263.46 327.173C1230.23 328.484 1225.78 343.617 1224.06 353.851L1222.75 361.667L1307.23 375.85L1311.48 350.542L1290.17 346.965L1288.67 355.898L1244.85 348.54C1245.16 346.68 1247.68 343.084 1264.54 342.949C1270 342.909 1278.31 342.965 1284.05 342.972C1307.39 342.968 1312.49 337.127 1314.24 326.706L1314.27 326.52C1316.11 315.541 1311.24 304.104 1278.67 298.637L1274.95 298.012C1239.13 291.998 1232.94 308.37 1231.59 316.372L1231.47 317.116L1254.08 320.912C1254.84 317.5 1257.49 311.439 1274.89 314.36ZM1402.16 368.732L1402.27 368.081C1404.07 357.381 1397.24 351.355 1391.9 348.929C1396.56 348.562 1403.77 346.042 1404.99 338.785L1405.08 338.227C1406.33 330.783 1403.8 319.644 1366.77 313.427L1362.86 312.771C1326.11 306.601 1320.54 322.694 1319.49 328.928L1319.34 329.858L1341.95 333.654C1342.57 332.228 1343.65 325.808 1362.26 328.932C1381.24 332.118 1382.13 335.904 1381.71 338.416C1381.32 340.742 1379.64 342.757 1371.92 341.46L1348.57 337.539L1345.86 353.636L1370.33 357.744C1378.52 359.119 1379.56 362.067 1379.1 364.765C1378.64 367.557 1376.69 372.301 1356.97 368.989C1337.98 365.803 1338.26 356.76 1338.35 355.054L1315.56 351.227L1315.43 351.972C1314.25 359.043 1314.64 378.338 1352.33 384.665L1356.7 385.399C1390.85 391.131 1400.2 380.456 1402.16 368.732ZM1491.54 361.446L1462.69 356.604L1464.46 346.09L1523.73 356.04L1526.18 341.432L1445.23 327.842L1433.61 397.067L1484.04 405.533C1512.88 410.376 1521.16 402.103 1523.27 389.542L1523.43 388.612C1525.49 376.33 1520.1 366.242 1491.54 361.446ZM1457.82 385.634L1460.24 371.212L1488.9 376.023C1499.13 377.741 1501.47 380.908 1500.77 385.095L1500.72 385.374C1500.02 389.561 1496.71 392.163 1486.48 390.445L1457.82 385.634ZM1587.81 350.534L1583.81 349.863C1539.98 342.506 1531.38 363.543 1529.3 375.918L1528.83 378.709C1526.79 390.898 1527.96 414.15 1571.78 421.507L1575.78 422.178C1619.42 429.504 1628.21 407.924 1630.25 395.735L1630.72 392.944C1632.8 380.569 1631.35 357.845 1587.81 350.534ZM1582.95 366.939C1606.3 370.859 1609.25 381.782 1607.91 389.784L1607.69 391.087C1606.35 399.089 1599.82 408.899 1576.56 404.994C1553.21 401.073 1550.38 389.406 1551.71 381.497L1551.9 380.381C1553.24 372.379 1559.22 362.956 1582.95 366.939ZM1653.55 433.991L1658.13 406.73L1704.65 414.54L1700.08 441.802L1721.76 445.441L1733.38 376.216L1711.7 372.577L1707.46 397.792L1660.94 389.982L1665.18 364.767L1643.5 361.127L1631.87 430.352L1653.55 433.991ZM1736.28 376.704L1760.94 429.825C1761.58 431.175 1762.07 432.215 1761.88 433.332L1761.87 433.425C1761.73 434.262 1761.15 434.835 1759.2 434.507L1747.01 432.461L1744.2 449.209L1757.78 451.49C1771.09 453.723 1774.52 449.803 1783.45 439.344L1824.21 391.465L1802.44 387.81L1777.26 418.119L1761.4 380.921L1736.28 376.704ZM1887.28 444.529C1886.55 446.033 1882.42 456.342 1860 452.578C1839.81 449.188 1836.15 437.38 1837.51 429.286L1837.69 428.169C1839.15 419.516 1845.45 411.008 1866.2 414.492C1888.25 418.194 1889.33 428.323 1889.57 430.278L1912.56 434.136L1912.73 433.113C1913.99 425.002 1911.16 404.82 1870.97 398.072L1867.15 397.431C1826.31 390.574 1817.18 411.332 1815.07 423.893L1814.62 426.591C1812.54 438.966 1815.02 462.343 1855.13 469.075L1858.94 469.716C1898.58 476.37 1908.62 458.157 1910.09 449.411L1910.26 448.387L1887.28 444.529ZM1932.41 436.703L1925.21 479.597L1946.7 483.205L1958.32 413.98L1941.39 411.137C1936.99 417.957 1930.64 422.152 1918.5 420.975L1916.31 434.001L1932.41 436.703ZM2006.61 437.202C2021.87 439.764 2023.59 442.635 2023.13 445.334C2022.74 447.66 2021.64 449.101 2011.93 449.384C2007.6 449.519 2000.58 449.774 1995.18 450.016C1961.95 451.326 1957.5 466.459 1955.78 476.694L1954.47 484.509L2038.95 498.693L2043.2 473.385L2021.89 469.808L2020.4 478.74L1976.57 471.383C1976.88 469.522 1979.4 465.926 1996.26 465.791C2001.72 465.751 2010.03 465.807 2015.77 465.814C2039.12 465.811 2044.21 459.969 2045.96 449.548L2045.99 449.362C2047.83 438.383 2042.96 426.946 2010.4 421.479L2006.68 420.854C1970.85 414.84 1964.66 431.212 1963.32 439.214L1963.19 439.958L1985.8 443.754C1986.57 440.343 1989.21 434.281 2006.61 437.202ZM2133.89 491.575L2134 490.923C2135.79 480.223 2128.96 474.197 2123.63 471.771C2128.28 471.404 2135.5 468.885 2136.71 461.627L2136.81 461.069C2138.06 453.625 2135.53 442.486 2098.5 436.269L2094.59 435.613C2057.83 429.443 2052.26 445.536 2051.22 451.77L2051.06 452.701L2073.67 456.496C2074.29 455.07 2075.37 448.65 2093.98 451.774C2112.96 454.961 2113.85 458.746 2113.43 461.259C2113.04 463.585 2111.37 465.599 2103.64 464.303L2080.29 460.382L2077.59 476.478L2102.06 480.587C2110.24 481.961 2111.28 484.909 2110.83 487.608C2110.36 490.399 2108.41 495.143 2088.69 491.831C2069.71 488.645 2069.98 479.603 2070.08 477.897L2047.28 474.07L2047.16 474.814C2045.97 481.885 2046.37 501.181 2084.05 507.507L2088.42 508.241C2122.57 513.974 2131.92 503.298 2133.89 491.575Z" fill="black"/>
</g>
<defs>
<clipPath id="clip0_90_29">
<rect width="2415.26" height="157.728" fill="white" transform="translate(-233.883) rotate(9.53147)"/>
</clipPath>
</defs>
</svg>
