<svg width="219" height="218" viewBox="0 0 219 218" fill="none" xmlns="http://www.w3.org/2000/svg">
<path d="M109.395 76.6859C100.75 76.6859 92.4592 80.1201 86.3463 86.233C80.2334 92.3459 76.7992 100.637 76.7992 109.282C76.7992 117.927 80.2334 126.218 86.3463 132.33C92.4592 138.443 100.75 141.878 109.395 141.878C118.04 141.878 126.331 138.443 132.444 132.33C138.557 126.218 141.991 117.927 141.991 109.282C141.991 100.637 138.557 92.3459 132.444 86.233C126.331 80.1201 118.04 76.6859 109.395 76.6859ZM109.395 54.9553C123.803 54.9553 137.621 60.679 147.81 70.8672C157.998 81.0553 163.721 94.8735 163.721 109.282C163.721 123.69 157.998 137.508 147.81 147.696C137.621 157.884 123.803 163.608 109.395 163.608C94.9868 163.608 81.1686 157.884 70.9804 147.696C60.7923 137.508 55.0686 123.69 55.0686 109.282C55.0686 94.8735 60.7923 81.0553 70.9804 70.8672C81.1686 60.679 94.9868 54.9553 109.395 54.9553ZM180.019 52.239C180.019 55.8411 178.588 59.2956 176.041 61.8426C173.494 64.3897 170.04 65.8206 166.438 65.8206C162.836 65.8206 159.381 64.3897 156.834 61.8426C154.287 59.2956 152.856 55.8411 152.856 52.239C152.856 48.6369 154.287 45.1824 156.834 42.6354C159.381 40.0883 162.836 38.6574 166.438 38.6574C170.04 38.6574 173.494 40.0883 176.041 42.6354C178.588 45.1824 180.019 48.6369 180.019 52.239ZM109.395 22.3595C82.5143 22.3595 78.1247 22.4355 65.6188 22.9897C57.1004 23.3917 51.3853 24.5325 46.083 26.5969C41.6458 28.226 37.6343 30.8372 34.3485 34.2352C30.9477 37.5209 28.333 41.5322 26.6993 45.9697C24.6349 51.2937 23.4941 56.998 23.1029 65.5055C22.5379 77.5008 22.4619 81.6948 22.4619 109.282C22.4619 136.173 22.5379 140.552 23.0921 153.058C23.4941 161.565 24.6349 167.291 26.6885 172.583C28.5356 177.309 30.7086 180.71 34.3159 184.317C37.9775 187.968 41.3783 190.152 46.0504 191.956C51.4179 194.031 57.133 195.183 65.6079 195.574C77.6032 196.139 81.7972 196.204 109.384 196.204C136.276 196.204 140.654 196.128 153.16 195.574C161.657 195.172 167.372 194.031 172.685 191.977C177.118 190.34 181.128 187.73 184.42 184.339C188.081 180.688 190.265 177.288 192.069 172.605C194.133 167.259 195.285 161.544 195.676 153.047C196.241 141.063 196.306 136.858 196.306 109.282C196.306 82.401 196.23 78.0115 195.676 65.5055C195.274 57.0089 194.123 51.272 192.069 45.9697C190.431 41.5369 187.821 37.5272 184.431 34.2352C181.146 30.8327 177.135 28.2177 172.696 26.5861C167.372 24.5217 161.657 23.3808 153.16 22.9897C141.176 22.4247 136.993 22.3595 109.395 22.3595ZM109.395 0.628906C138.916 0.628906 142.599 0.737558 154.193 1.28082C165.753 1.82409 173.641 3.63859 180.563 6.33318C187.734 9.09296 193.775 12.8306 199.816 18.8609C205.341 24.2924 209.616 30.8625 212.344 38.1141C215.027 45.0353 216.853 52.9235 217.396 64.495C217.907 76.0774 218.048 79.7608 218.048 109.282C218.048 138.803 217.939 142.486 217.396 154.068C216.853 165.64 215.027 173.517 212.344 180.449C209.623 187.705 205.347 194.276 199.816 199.703C194.383 205.226 187.813 209.5 180.563 212.23C173.641 214.914 165.753 216.739 154.193 217.283C142.599 217.793 138.916 217.935 109.395 217.935C79.874 217.935 76.1907 217.826 64.5975 217.283C53.0368 216.739 45.1595 214.914 38.2274 212.23C30.973 209.508 24.4016 205.232 18.9741 199.703C13.4484 194.272 9.17321 187.701 6.44646 180.449C3.75187 173.528 1.93737 165.64 1.39411 154.068C0.872573 142.486 0.742188 138.803 0.742188 109.282C0.742188 79.7608 0.850842 76.0774 1.39411 64.495C1.93737 52.9126 3.75187 45.0462 6.44646 38.1141C9.16535 30.8581 13.4416 24.2861 18.9741 18.8609C24.4032 13.3329 30.9741 9.05742 38.2274 6.33318C45.1486 3.63859 53.0259 1.82409 64.5975 1.28082C76.1907 0.770154 79.874 0.628906 109.395 0.628906Z" fill="white"/>
</svg>
