<svg width="509" height="106" viewBox="0 0 509 106" fill="none" xmlns="http://www.w3.org/2000/svg">
<path d="M493.953 15.0471V0.315802C493.953 0.232046 493.986 0.151722 494.046 0.0924977C494.105 0.0332732 494.185 0 494.269 0H508.699C508.779 0 508.856 0.0317063 508.912 0.0881438C508.969 0.144581 509 0.221126 509 0.300941V14.8613C509 14.8857 508.995 14.9099 508.986 14.9324C508.977 14.9549 508.963 14.9754 508.946 14.9927C508.929 15.0099 508.908 15.0236 508.886 15.0329C508.863 15.0423 508.839 15.0471 508.814 15.0471H493.953Z" fill="white"/>
<path d="M14.7684 15.1666L0.286076 15.2297C0.248508 15.2297 0.211314 15.2223 0.176605 15.2079C0.141896 15.1936 0.110355 15.1725 0.0837899 15.1459C0.0572249 15.1194 0.0361577 15.0878 0.0217808 15.0531C0.00740396 15.0184 0 14.9812 0 14.9436V0.409273C0 0.379998 0.00577065 0.351012 0.0169734 0.323966C0.0281762 0.29692 0.0445972 0.272345 0.0652972 0.251645C0.0859972 0.230945 0.110567 0.214524 0.137613 0.203321C0.164659 0.192119 0.193648 0.186354 0.222922 0.186354L14.7944 0.164062C14.8437 0.164063 14.891 0.184026 14.9258 0.219561C14.9606 0.255095 14.9802 0.303289 14.9802 0.353542L15.0731 14.5944C15.0731 14.6674 15.0874 14.7397 15.1153 14.8071C15.1432 14.8745 15.184 14.9357 15.2355 14.9872C15.2869 15.0386 15.348 15.0793 15.4151 15.1069C15.4823 15.1345 15.5542 15.1485 15.6267 15.148C35.0554 14.9994 54.12 15.013 72.8204 15.1888C73.5685 15.1963 74.257 15.1566 74.8862 15.07C74.9296 15.0641 74.9739 15.0677 75.0159 15.0803C75.0579 15.0929 75.0967 15.1144 75.1298 15.1432C75.1628 15.1721 75.1893 15.2076 75.2075 15.2475C75.2258 15.2874 75.2353 15.3308 75.2354 15.3746V29.9796C75.2354 30.0348 75.2135 30.0877 75.1745 30.1267C75.1355 30.1657 75.0825 30.1876 75.0273 30.1876L54.3553 30.2099C54.307 30.2099 54.2607 30.2299 54.2265 30.2654C54.1924 30.301 54.1732 30.3492 54.1732 30.3994L54.058 105.122C54.058 105.177 54.0357 105.23 53.996 105.269C53.9563 105.308 53.9024 105.33 53.8463 105.33H39.3416C39.2786 105.33 39.2181 105.305 39.1735 105.259C39.1289 105.214 39.1038 105.153 39.1038 105.089L38.9887 30.3957C38.9887 30.3464 38.9691 30.2992 38.9342 30.2643C38.8994 30.2295 38.8522 30.2099 38.8029 30.2099L15.2551 30.1876C15.2 30.1876 15.147 30.1657 15.108 30.1267C15.069 30.0877 15.0471 30.0348 15.0471 29.9796V15.4415C15.0471 15.3686 15.0177 15.2986 14.9655 15.2471C14.9132 15.1955 14.8423 15.1666 14.7684 15.1666Z" fill="white"/>
<path d="M403.461 67.7352L373.879 67.7129C373.852 67.7129 373.825 67.7183 373.8 67.7287C373.775 67.7392 373.752 67.7545 373.732 67.7738C373.713 67.7931 373.698 67.8161 373.687 67.8413C373.677 67.8666 373.671 67.8936 373.671 67.9209V105.145C373.671 105.194 373.652 105.241 373.617 105.276C373.582 105.311 373.535 105.331 373.486 105.331L358.836 105.308C358.786 105.308 358.738 105.289 358.702 105.254C358.666 105.219 358.647 105.172 358.647 105.123C358.567 99.3588 358.529 90.8519 358.531 79.6019C358.541 46.5405 358.565 25.108 358.602 15.3045C358.602 15.2548 358.622 15.2072 358.657 15.1718C358.693 15.1363 358.741 15.1159 358.791 15.115C379.411 14.9218 398.799 14.8995 416.955 15.0481C417.634 15.053 418.183 15.0357 418.604 14.9961C418.628 14.994 418.652 14.9968 418.675 15.0043C418.697 15.0118 418.718 15.0237 418.735 15.0395C418.753 15.0552 418.767 15.0743 418.776 15.0957C418.786 15.117 418.79 15.14 418.79 15.1633L418.742 105.074C418.742 105.124 418.722 105.173 418.688 105.208C418.653 105.244 418.606 105.264 418.556 105.264L403.873 105.327C403.847 105.327 403.821 105.323 403.797 105.313C403.772 105.303 403.75 105.288 403.732 105.269C403.713 105.251 403.698 105.228 403.688 105.204C403.678 105.179 403.673 105.153 403.673 105.126L403.65 67.9209C403.65 67.8717 403.63 67.8244 403.595 67.7896C403.559 67.7547 403.511 67.7352 403.461 67.7352ZM403.676 30.2958C403.676 30.2426 403.655 30.1916 403.618 30.1539C403.58 30.1163 403.529 30.0952 403.476 30.0952H373.872C373.819 30.0952 373.768 30.1163 373.73 30.1539C373.692 30.1916 373.671 30.2426 373.671 30.2958V52.3723C373.671 52.4255 373.692 52.4765 373.73 52.5142C373.768 52.5518 373.819 52.5729 373.872 52.5729H403.476C403.529 52.5729 403.58 52.5518 403.618 52.5142C403.655 52.4765 403.676 52.4255 403.676 52.3723V30.2958Z" fill="white"/>
<path d="M493.954 15.0469V29.8785C493.954 29.9356 493.931 29.9904 493.891 30.0308C493.85 30.0713 493.796 30.094 493.738 30.094H449.114C449.058 30.094 449.006 30.1159 448.967 30.1549C448.928 30.1939 448.906 30.2468 448.906 30.302V52.3636C448.906 52.4188 448.928 52.4717 448.967 52.5108C449.006 52.5498 449.058 52.5717 449.114 52.5717H493.768C493.793 52.5717 493.817 52.5765 493.839 52.5858C493.862 52.5952 493.882 52.6089 493.9 52.6261C493.917 52.6434 493.93 52.6638 493.94 52.6864C493.949 52.7089 493.954 52.7331 493.954 52.7575V105.144C493.954 105.168 493.949 105.192 493.94 105.215C493.93 105.237 493.917 105.258 493.9 105.275C493.882 105.292 493.862 105.306 493.839 105.315C493.817 105.325 493.793 105.329 493.768 105.329H433.951C433.902 105.329 433.855 105.31 433.82 105.275C433.785 105.24 433.766 105.193 433.766 105.144V15.1472C433.766 15.1206 433.776 15.0951 433.795 15.0763C433.814 15.0574 433.839 15.0469 433.866 15.0469H493.954ZM478.903 67.8083C478.903 67.7826 478.893 67.7581 478.875 67.74C478.857 67.7218 478.832 67.7117 478.807 67.7117H449.002C448.977 67.7117 448.952 67.7218 448.934 67.74C448.916 67.7581 448.906 67.7826 448.906 67.8083V90.0928C448.906 90.1184 448.916 90.143 448.934 90.1611C448.952 90.1792 448.977 90.1894 449.002 90.1894H478.807C478.832 90.1894 478.857 90.1792 478.875 90.1611C478.893 90.143 478.903 90.1184 478.903 90.0928V67.8083Z" fill="white"/>
<path d="M135.117 67.8268L105.536 67.8045C105.48 67.8045 105.427 67.8265 105.388 67.8655C105.349 67.9045 105.327 67.9574 105.327 68.0126V105.099C105.327 105.185 105.293 105.267 105.233 105.328C105.172 105.388 105.09 105.422 105.004 105.422C100.427 105.422 95.8051 105.422 91.1386 105.422C91.1163 105.422 90.9789 105.431 90.7262 105.448C90.3151 105.478 90.1491 105.312 90.2284 104.95C90.2556 104.824 90.2593 104.704 90.2395 104.59C90.2048 104.372 90.1875 104.061 90.1875 103.657C90.1875 74.3683 90.1875 44.933 90.1875 15.3515C90.1875 15.2707 90.2196 15.1932 90.2767 15.1361C90.3339 15.079 90.4114 15.0469 90.4922 15.0469L150.164 15.0692C150.214 15.0692 150.263 15.0887 150.298 15.1236C150.334 15.1584 150.354 15.2057 150.354 15.2549L150.376 105.214C150.376 105.269 150.354 105.322 150.315 105.361C150.276 105.4 150.223 105.422 150.168 105.422H135.585C135.517 105.422 135.452 105.395 135.404 105.347C135.356 105.299 135.329 105.234 135.329 105.166L135.306 68.0126C135.306 67.9633 135.286 67.9161 135.251 67.8812C135.215 67.8464 135.167 67.8268 135.117 67.8268ZM135.332 30.2834C135.332 30.2578 135.322 30.2332 135.304 30.2151C135.286 30.197 135.261 30.1868 135.236 30.1868H105.424C105.398 30.1868 105.374 30.197 105.356 30.2151C105.338 30.2332 105.327 30.2578 105.327 30.2834V52.568C105.327 52.5936 105.338 52.6182 105.356 52.6363C105.374 52.6544 105.398 52.6646 105.424 52.6646H135.236C135.261 52.6646 135.286 52.6544 135.304 52.6363C135.322 52.6182 135.332 52.5936 135.332 52.568V30.2834Z" fill="white"/>
<path d="M180.495 30.3949L180.473 52.4268C180.473 52.4899 180.498 52.5503 180.543 52.5949C180.587 52.6395 180.648 52.6646 180.711 52.6646H225.402C225.458 52.6646 225.512 52.6865 225.552 52.7255C225.592 52.7645 225.614 52.8175 225.614 52.8726L225.592 105.214C225.592 105.263 225.572 105.311 225.536 105.346C225.501 105.38 225.453 105.4 225.402 105.4L165.73 105.422C165.65 105.422 165.572 105.39 165.515 105.333C165.458 105.276 165.426 105.198 165.426 105.118V15.3032C165.426 15.2696 165.432 15.2362 165.445 15.2051C165.458 15.174 165.477 15.1458 165.501 15.122C165.525 15.0982 165.553 15.0793 165.584 15.0664C165.615 15.0535 165.648 15.0469 165.682 15.0469H225.406C225.461 15.0469 225.514 15.0688 225.553 15.1078C225.592 15.1468 225.614 15.1998 225.614 15.2549V29.9082C225.614 29.9326 225.609 29.9567 225.6 29.9793C225.591 30.0018 225.577 30.0223 225.56 30.0395C225.542 30.0568 225.522 30.0705 225.499 30.0798C225.477 30.0892 225.453 30.094 225.428 30.094L180.685 30.2091C180.634 30.2101 180.586 30.2301 180.55 30.2648C180.515 30.2996 180.495 30.3463 180.495 30.3949ZM210.567 67.9754C210.567 67.953 210.563 67.9308 210.554 67.91C210.545 67.8893 210.533 67.8705 210.517 67.8546C210.501 67.8387 210.482 67.8261 210.462 67.8176C210.441 67.809 210.419 67.8045 210.396 67.8045H180.644C180.598 67.8045 180.555 67.8225 180.523 67.8546C180.491 67.8867 180.473 67.9301 180.473 67.9754V90.1114C180.473 90.1567 180.491 90.2002 180.523 90.2322C180.555 90.2643 180.598 90.2823 180.644 90.2823H210.396C210.419 90.2823 210.441 90.2779 210.462 90.2693C210.482 90.2607 210.501 90.2481 210.517 90.2322C210.533 90.2163 210.545 90.1975 210.554 90.1768C210.563 90.156 210.567 90.1338 210.567 90.1114V67.9754Z" fill="white"/>
<path d="M307.143 30.1162L283.598 30.0717C283.548 30.0717 283.5 30.0517 283.464 30.0162C283.429 29.9806 283.409 29.9324 283.409 29.8822L283.387 15.2326C283.387 15.1834 283.406 15.1361 283.441 15.1013C283.476 15.0664 283.523 15.0469 283.572 15.0469H343.252C343.338 15.0469 343.42 15.0809 343.48 15.1415C343.541 15.2022 343.575 15.2844 343.575 15.3701L343.553 29.8822C343.553 29.9324 343.534 29.9806 343.499 30.0162C343.465 30.0517 343.419 30.0717 343.371 30.0717L322.747 30.094C322.679 30.094 322.614 30.121 322.566 30.169C322.518 30.2171 322.491 30.2823 322.491 30.3503V105.121C322.491 105.149 322.485 105.176 322.475 105.201C322.464 105.226 322.449 105.249 322.43 105.268C322.41 105.288 322.387 105.303 322.362 105.314C322.337 105.324 322.31 105.329 322.282 105.329H307.566C307.515 105.329 307.466 105.309 307.429 105.273C307.393 105.237 307.373 105.187 307.373 105.136L307.328 30.2983C307.328 30.25 307.309 30.2037 307.274 30.1696C307.239 30.1354 307.192 30.1162 307.143 30.1162Z" fill="white"/>
<path d="M270.635 52.6641H255.826C255.76 52.6641 255.707 52.7173 255.707 52.783V67.5922C255.707 67.6579 255.76 67.7111 255.826 67.7111H270.635C270.701 67.7111 270.754 67.6579 270.754 67.5922V52.783C270.754 52.7173 270.701 52.6641 270.635 52.6641Z" fill="#7869AF"/>
</svg>
