<svg width="1345" height="273" viewBox="0 0 1345 273" fill="none" xmlns="http://www.w3.org/2000/svg">
<path fill-rule="evenodd" clip-rule="evenodd" d="M0.523438 0H1343.4V272.105H1263.54V255.263H1326.58V17.3684H17.3356V255.263H234.108C353.264 255.263 466.851 255.368 522.226 255.789L522.752 272.105H0.523438V0ZM525.904 255.263H1244.62V272.105H525.904V255.263Z" fill="white"/>
<path d="M225.912 272.842C102.238 273.053 0.734107 272.737 0.313803 272.316C-0.106502 271.895 101.082 271.789 450.775 272.632L225.912 272.842Z" fill="white"/>
<path d="M1263.01 272.632L1303.47 272.105C1325.74 271.789 1344.03 271.474 1344.13 271.263C1344.24 271.158 1344.13 271.474 1343.92 272.105C1343.61 272.737 1329.21 273.053 1263.01 272.632Z" fill="white"/>
<path d="M505.414 272.842C496.798 273.053 482.088 273.053 472.841 272.842C463.594 272.737 470.739 272.526 488.602 272.526C506.57 272.526 514.136 272.737 505.414 272.842Z" fill="white"/>
<path d="M571.612 272.842C565.308 273.053 554.38 273.053 547.445 272.842C540.51 272.737 545.764 272.526 559.003 272.526C572.348 272.526 578.022 272.737 571.612 272.842Z" fill="white"/>
<path d="M882.112 272.842C828.103 273.053 739.209 273.053 684.569 272.842C629.93 272.737 674.167 272.632 782.815 272.632C891.464 272.632 936.121 272.737 882.112 272.842Z" fill="white"/>
<path d="M995.594 272.842C993.598 273.053 989.815 273.053 987.188 272.842C984.561 272.632 986.243 272.421 990.866 272.421C995.489 272.421 997.591 272.632 995.594 272.842Z" fill="white"/>
<path d="M1186.31 272.842C1153.94 273.053 1100.46 273.053 1067.57 272.842C1034.68 272.737 1061.16 272.632 1126.41 272.632C1191.77 272.632 1218.67 272.737 1186.31 272.842Z" fill="white"/>
<path d="M0.210152 203.158C0.105076 240.842 0 210.211 0 135.263C0 60.3158 0.105076 29.4737 0.210152 66.8421C0.420304 104.211 0.420304 165.474 0.210152 203.158Z" fill="white"/>
<path d="M1344.13 203.158C1344.03 240.842 1343.92 210.211 1343.92 135.263C1343.92 60.3158 1344.03 29.4737 1344.13 66.8421C1344.34 104.211 1344.34 165.474 1344.13 203.158Z" fill="white"/>
<path d="M18.1763 254.632C17.6509 254.421 17.4407 201.053 17.5458 136.105C17.756 71.0527 17.9661 37.0527 18.0712 60.5264C18.2813 84 18.4915 137.368 18.5966 179.158C18.8067 220.842 18.5966 254.842 18.1763 254.632Z" fill="white"/>
<path d="M1325.74 254.421C1325.32 254.842 1325.22 201.789 1325.53 136.526L1326.06 17.8948L1326.27 135.79C1326.48 200.632 1326.16 254 1325.74 254.421Z" fill="white"/>
<path d="M1007.16 0.210152C822.537 0.420304 520.549 0.420304 336.245 0.210152C151.942 0.105076 302.936 0 671.963 0C1040.99 0 1191.77 0.105076 1007.16 0.210152Z" fill="white"/>
<path d="M998.748 18.1049C819.278 18.3151 525.485 18.3151 345.7 18.1049C165.915 17.9999 312.811 17.8948 671.961 17.8948C1031.11 17.8948 1178.22 17.9999 998.748 18.1049Z" fill="white"/>
<path d="M524.331 272.105C523.07 272.105 522.649 270.316 522.544 263.684H522.439C522.229 256.211 522.439 255.263 524.015 255.263C525.697 255.263 525.907 256.316 525.907 263.684C525.907 270.421 525.591 272.105 524.331 272.105Z" fill="white"/>
<path d="M1244.73 272.105V263.684V255.263H1263.65V272.105H1244.73Z" fill="white"/>
<path d="M998.748 254.947C819.278 255.157 525.485 255.157 345.7 254.947C165.915 254.842 312.811 254.737 671.961 254.737C1031.11 254.737 1178.22 254.842 998.748 254.947Z" fill="white"/>
<path d="M531.684 272.842C529.373 273.052 525.8 273.052 523.804 272.842C521.807 272.631 523.699 272.421 528.007 272.421C532.315 272.421 533.996 272.631 531.684 272.842Z" fill="white"/>
<path d="M1258.81 272.842C1255.97 273.052 1251.46 273.052 1248.83 272.842C1246.2 272.631 1248.62 272.526 1254.08 272.526C1259.55 272.526 1261.75 272.631 1258.81 272.842Z" fill="white"/>
<path fill-rule="evenodd" clip-rule="evenodd" d="M1195.77 69.0527C1217.52 69.0527 1237.9 69.4738 1242 70.1054C1245.99 70.6317 1251.25 72.0001 1253.56 72.9475C1255.87 74.0001 1259.86 76.7369 1262.49 79.158C1265.22 81.5791 1268.27 85.7896 1269.74 89.0527C1271.74 93.3685 1272.26 96.5264 1272.26 102.632C1272.26 108.211 1271.74 111.895 1270.26 115.263C1269.11 117.895 1266.8 121.79 1265.01 124.105C1263.33 126.316 1260.28 129.053 1254.61 132.421L1258.81 134.526C1261.12 135.579 1264.59 138 1266.48 139.895C1268.37 141.684 1270.89 145.579 1272.26 148.421C1274.15 152.737 1274.57 155.579 1274.57 164.211C1274.57 173.474 1274.26 175.474 1271.74 180.526C1270.16 183.895 1266.8 188.211 1263.85 190.842C1261.12 193.369 1256.71 196.421 1254.08 197.579C1251.46 198.842 1247.04 200.526 1244.1 201.263C1240.21 202.211 1227.5 202.632 1193.87 202.632C1164.66 202.632 1147.11 202.211 1143.44 201.474C1140.5 200.842 1135.14 199.053 1131.67 197.474C1128.2 195.895 1122.95 192.526 1120.11 189.79C1117.17 187.158 1113.6 182.421 1112.02 179.369C1110.55 176.211 1108.55 170 1107.61 165.579C1106.66 161.053 1105.93 156.947 1105.93 156.316C1105.93 155.684 1113.7 155.263 1148.48 155.263L1150.27 159.474C1151.63 162.421 1153.42 164.421 1156.57 166.105C1160.98 168.316 1161.83 168.421 1228.02 168.421L1230.55 165.579C1231.91 163.895 1233.07 161.474 1233.07 160C1233.07 158.526 1231.91 156.105 1228.02 151.579L1167.92 151.053V120.526H1224.77L1227.29 117.895C1228.76 116.421 1229.91 114.105 1229.91 112.632C1229.91 111.158 1228.76 108.737 1224.87 104.211H1192.82C1162.04 104.211 1160.56 104.316 1157.73 106.421C1156.15 107.579 1154.05 110.105 1151.63 115.263H1109.08V112.421C1109.08 110.737 1110.02 105.895 1111.18 101.579C1112.44 96.7369 1114.75 91.4738 1117.27 88.0001C1119.37 84.8422 1123.47 80.6317 1126.41 78.7369C1129.25 76.7369 1134.19 74.2106 1137.13 73.0527C1140.18 72.0001 1145.85 70.6317 1149.74 70.1054C1153.73 69.5791 1174.43 69.158 1195.77 69.0527V69.0527ZM77.2305 71.0527H264.266V105.79H192.814V188.947L189.031 194C186.93 196.737 184.408 199.579 183.462 200.316C182.307 201.263 177.053 201.579 148.682 201.579V105.79H77.2305V71.0527ZM298.941 71.0527H469.164V103.684H344.124V116.316H393.299C430.601 116.316 444.051 116.737 449.2 117.79C452.982 118.526 458.867 120.632 462.334 122.421C465.802 124.105 470.845 127.895 473.472 130.632C476.099 133.474 479.146 138.211 480.302 141.053C481.878 145.263 482.299 148.947 482.299 159.474C482.194 171.158 481.983 173.263 479.672 178.316C478.201 181.474 474.943 186 472.316 188.421C469.69 190.842 465.697 193.79 463.385 194.947C461.073 196.211 456.555 198 453.403 199.053C448.044 200.842 441.949 201.053 298.941 201.579V71.0527ZM345.174 165.79C432.598 165.895 434.069 165.79 436.906 163.684C438.692 162.421 439.743 160.632 439.743 158.947C439.743 157.474 439.323 155.369 438.692 154.211C438.062 153.053 436.065 151.579 434.279 151.053C432.177 150.421 414.104 150 388.045 150H345.174V165.79ZM503.839 71.0527H547.971V92.6317C547.971 104.526 548.286 114.211 548.812 114.211C549.232 114.211 565.204 104.526 618.898 71.0527H690.349L646.743 98.2106C622.785 113.158 601.56 126.316 599.669 127.474C597.777 128.526 596.306 129.79 596.306 130.316C596.306 130.737 619.423 146.842 698.966 201.053L627.829 201.579L589.686 175.369C568.776 160.947 550.808 148.842 549.758 148.526C548.076 147.895 547.971 149.684 547.971 201.579H503.839V71.0527ZM852.166 71.158L890.519 71.0527L890.309 135.369C889.994 195.79 889.889 199.895 888.102 200.947C886.631 201.895 886.106 201.79 885.37 200.526C884.74 199.369 884.32 199.263 883.794 200.316C883.374 201.263 878.435 201.579 846.387 201.579V160.526C846.387 133.895 845.967 119.474 845.336 119.474C844.811 119.474 843.971 120 843.445 120.737C843.025 121.474 839.873 123.263 836.405 124.842C832.938 126.421 826.633 128.421 822.43 129.369C818.332 130.316 812.763 131.053 805.408 131.053V96.3159L808.245 95.6843C809.926 95.3685 813.814 94.3159 816.966 93.4738C820.118 92.6317 826.528 89.8948 831.151 87.5791C835.88 85.0527 842.289 80.5264 845.862 77.158L852.166 71.158ZM1008.73 71.4738C1045.19 71.7896 1049.39 72.0001 1056.54 73.8948C1060.85 75.0527 1066.52 77.158 1069.15 78.5264C1071.78 79.7896 1075.98 82.8422 1078.61 85.2633C1081.23 87.7896 1084.49 92.2106 1085.86 95.3685C1087.75 99.4738 1088.59 103.579 1088.9 110C1089.11 114.947 1088.8 120.947 1088.17 123.474C1087.54 125.895 1085.23 129.895 1083.02 132.316C1080.92 134.632 1077.45 137.684 1075.45 138.947C1073.46 140.211 1068.73 142.526 1064.95 144C1061.16 145.579 1054.33 147.79 1049.71 148.947C1045.09 150 1032.58 152.211 1021.86 153.684C1011.15 155.158 999.588 157.263 996.121 158.211C992.653 159.158 988.555 161.053 986.874 162.316C985.298 163.684 984.037 165.263 984.037 165.79C984.037 166.526 1002.43 166.842 1090.16 166.842V201.053L1049.18 201.369C1022.39 201.474 1008.2 201.263 1008.2 200.526C1008.2 200 1006.1 199.474 1003.48 199.474C1000.85 199.474 998.748 199.895 998.748 200.316C998.748 200.737 980.885 201.263 919.415 201.79L920.256 195.053C920.676 191.474 921.517 185.79 922.147 182.632C922.778 179.474 924.984 173.263 926.981 168.947C929.923 162.842 932.76 159.158 939.275 152.632C945.474 146.421 949.992 142.947 956.192 139.79C960.815 137.474 968.17 134.211 972.479 132.737C976.787 131.158 983.932 129.053 988.24 127.895C992.548 126.842 1004.63 124.421 1015.03 122.632C1025.44 120.842 1036.05 118.842 1038.57 118.105C1041.09 117.474 1043.83 115.895 1044.56 114.737C1045.4 113.474 1045.61 111.79 1045.09 110.526C1044.56 109.369 1042.67 107.895 1040.67 107.158C1038.26 106.316 1027.64 105.895 1007.89 105.895C984.247 105.79 978.048 106.105 975.105 107.369C973.004 108.316 970.692 110.316 968.275 115.263H924.144L925.72 108.737C926.56 105.053 928.347 99.2633 929.713 95.8948C930.973 92.4212 933.705 87.6843 935.807 85.3685C937.908 82.9475 942.322 79.5791 945.789 77.7896C949.152 75.8948 954.616 73.8948 957.768 73.2633C960.92 72.6317 964.703 71.8948 966.174 71.6843C967.645 71.4738 986.769 71.3685 1008.73 71.4738V71.4738Z" fill="white"/>
<path d="M438.692 104.421C421.669 104.632 393.299 104.632 375.646 104.421C357.993 104.316 371.968 104.21 406.644 104.21C441.319 104.21 455.714 104.316 438.692 104.421Z" fill="white"/>
<path d="M1210.48 151.789C1202.38 152 1189.36 152 1181.58 151.789C1173.8 151.684 1180.42 151.474 1196.29 151.474C1212.16 151.474 1218.57 151.684 1210.48 151.789Z" fill="white"/>
<path d="M425.557 70.7368C402.44 70.9474 365.033 70.9474 342.547 70.7368C320.061 70.6316 338.974 70.5263 384.577 70.5263C430.18 70.5263 448.674 70.6316 425.557 70.7368Z" fill="white"/>
<path d="M502.998 137.368C502.893 101.789 502.998 72 503.313 71.2632C503.629 70.3158 507.411 70.1053 531.684 70.4211L503.839 71.0526L503.313 202.105L502.998 137.368Z" fill="white"/>
<path d="M673.537 70.7368C663.659 70.9474 647.373 70.9474 637.285 70.7368C627.198 70.6316 635.184 70.4211 655.148 70.4211C675.113 70.4211 683.414 70.6316 673.537 70.7368Z" fill="white"/>
<path d="M984.562 70.7368C982.25 70.9474 978.888 70.9474 977.206 70.7368C975.525 70.5263 977.311 70.3158 981.409 70.3158C985.507 70.3158 986.873 70.5263 984.562 70.7368Z" fill="white"/>
<path d="M1205.75 104.421C1199.13 104.632 1187.78 104.632 1180.53 104.421C1173.28 104.316 1178.74 104.105 1192.61 104.105C1206.48 104.105 1212.37 104.316 1205.75 104.421Z" fill="white"/>
<path d="M148.366 177.895C148.261 191.263 148.156 180.526 148.156 154.211C148.156 127.895 148.261 116.947 148.366 130C148.577 143.053 148.577 164.526 148.366 177.895Z" fill="white"/>
<path d="M1208.9 168.632C1201.65 168.842 1189.67 168.842 1182.1 168.632C1174.54 168.526 1180.53 168.316 1195.24 168.316C1209.95 168.316 1216.15 168.526 1208.9 168.632Z" fill="white"/>
<path d="M923.617 115.895L946.209 115.263C958.608 114.947 968.905 114.526 969.01 114.421C969.115 114.316 969.01 114.737 968.8 115.263C968.485 115.895 960.079 116.21 923.617 115.895Z" fill="white"/>
<path d="M1167.6 143.158C1167.5 147.789 1167.29 144.526 1167.29 135.789C1167.29 127.053 1167.5 123.368 1167.6 127.368C1167.81 131.368 1167.81 138.526 1167.6 143.158Z" fill="white"/>
<path d="M1090.9 193.684C1090.79 198.316 1090.58 194 1090.58 184.21C1090.58 174.421 1090.79 170.632 1090.9 175.789C1091.11 180.947 1091.11 189.053 1090.9 193.684Z" fill="white"/>
<path d="M1213.63 203.368C1203.22 203.579 1185.78 203.579 1174.75 203.368C1163.72 203.263 1172.33 203.158 1193.66 203.158C1214.99 203.158 1224.03 203.263 1213.63 203.368Z" fill="white"/>
<path d="M1141.13 115.999C1134.82 116.209 1124.63 116.209 1118.54 115.999C1112.44 115.894 1117.69 115.684 1130.09 115.684C1142.49 115.684 1147.43 115.894 1141.13 115.999Z" fill="white"/>
<path d="M298.628 164.737C298.523 181.79 298.418 167.579 298.418 133.158C298.418 98.7369 298.523 84.7369 298.628 102.105C298.838 119.474 298.838 147.684 298.628 164.737Z" fill="white"/>
<path d="M1214.68 68.6315C1205.43 68.842 1189.78 68.842 1180 68.6315C1170.23 68.5262 1177.69 68.3157 1196.82 68.3157C1215.94 68.3157 1223.93 68.5262 1214.68 68.6315Z" fill="white"/>
<path d="M76.3906 80.1051C76.1804 76.1051 76.2855 72.2104 76.6007 71.3683C76.916 70.6315 77.3363 69.9999 77.4413 69.9999C77.6515 69.9999 77.5464 73.8946 76.7058 87.3683L76.3906 80.1051Z" fill="white"/>
<path d="M805.093 106.842C804.883 109.474 804.673 107.789 804.673 103.158C804.673 98.5262 804.883 96.4209 805.093 98.4209C805.303 100.421 805.303 104.21 805.093 106.842Z" fill="white"/>
<path d="M548.707 102.632C548.602 108.737 548.392 104 548.392 92.1052C548.392 80.2105 548.602 75.2631 548.707 81.0526C548.917 86.842 548.917 96.5262 548.707 102.632Z" fill="white"/>
<path d="M193.55 177.895C193.445 191.263 193.34 180.526 193.34 154.21C193.34 127.895 193.445 116.947 193.55 130C193.76 143.053 193.76 164.526 193.55 177.895Z" fill="white"/>
<path d="M417.677 116C404.648 116.21 382.897 116.21 369.342 116C355.787 115.895 366.4 115.789 392.984 115.789C419.569 115.789 430.707 115.895 417.677 116Z" fill="white"/>
<path d="M548.707 187.895C548.602 195.684 548.392 189.789 548.392 174.737C548.392 159.684 548.602 153.263 548.707 160.526C548.917 167.789 548.917 180.105 548.707 187.895Z" fill="white"/>
<path d="M1135.03 155.474C1126.84 155.368 1116.75 155.158 1112.76 154.947C1108.76 154.737 1115.17 154.526 1127.15 154.421C1139.23 154.316 1149.22 154.526 1149.43 155.053C1149.64 155.474 1143.12 155.684 1135.03 155.474Z" fill="white"/>
<path fill-rule="evenodd" clip-rule="evenodd" d="M172.323 70.5264C220.343 70.5264 240.202 70.6317 216.455 70.737C192.708 70.9475 153.514 70.9475 129.242 70.737C104.969 70.6317 124.303 70.5264 172.323 70.5264ZM468.112 70.3159C469.478 70.6317 469.688 73.4738 469.793 104.211L469.373 87.8948C469.163 76.6317 468.638 71.2633 467.797 70.737C466.886 70.1054 466.991 69.965 468.112 70.3159V70.3159ZM1007.68 106.211C1021.55 106.211 1027.43 106.421 1020.81 106.526C1014.19 106.737 1002.84 106.737 995.594 106.526C988.344 106.421 993.808 106.211 1007.68 106.211ZM1048.66 166.316C1070.62 166.316 1079.87 166.421 1069.15 166.526C1058.43 166.737 1040.46 166.737 1029.22 166.526C1017.98 166.421 1026.7 166.316 1048.66 166.316Z" fill="white"/>
<path d="M129.77 106.526C119.683 106.736 103.606 106.736 94.0442 106.526C84.4823 106.421 92.7833 106.21 112.433 106.21C132.082 106.21 139.857 106.421 129.77 106.526Z" fill="white"/>
<path d="M246.405 106.526C236.317 106.736 220.241 106.736 210.679 106.526C201.117 106.421 209.418 106.21 229.067 106.21C248.716 106.21 256.492 106.421 246.405 106.526Z" fill="white"/>
<path d="M298.416 202.105L298.311 198.631C298.206 195.474 298.206 195.474 298.942 201.579L437.117 202.105H298.416Z" fill="white"/>
<path d="M176.003 202.316C170.539 202.526 162.028 202.526 157.089 202.316C152.15 202.21 156.669 202 167.071 202C177.474 202 181.467 202.21 176.003 202.316Z" fill="white"/>
<path d="M536.939 202.316C530.634 202.526 520.442 202.526 514.348 202.316C508.253 202.21 513.507 202 525.906 202C538.305 202 543.244 202.21 536.939 202.316Z" fill="white"/>
<path d="M681.944 202.316C671.541 202.526 655.044 202.526 645.167 202.316C635.395 202.21 643.906 202 664.081 202.105C684.361 202.105 692.346 202.21 681.944 202.316Z" fill="white"/>
<path d="M879.487 202.316C873.182 202.526 862.99 202.526 856.896 202.316C850.801 202.21 856.055 202 868.454 202C880.853 202 885.792 202.21 879.487 202.316Z" fill="white"/>
<path d="M1048.13 202.316C1024.18 202.526 985.404 202.526 961.972 202.316C938.54 202.21 958.189 202.105 1005.58 202.105C1052.97 202.105 1072.09 202.21 1048.13 202.316Z" fill="white"/>
<path d="M185.458 201.053C184.757 200.351 185.598 198.176 187.979 194.526L191.447 189.158L192.182 192.421C192.813 195.263 192.393 196.316 189.766 198.947C187.594 201.053 186.158 201.754 185.458 201.053Z" fill="white"/>
<path d="M1003.47 201.474C1000.95 201.474 998.746 201.053 998.746 200.421C998.746 199.895 1000.95 199.368 1003.47 199.368C1006.1 199.368 1008.2 199.895 1008.2 200.421C1008.2 201.053 1006.1 201.474 1003.47 201.474Z" fill="white"/>
<path d="M891.255 168.947C891.15 187.158 891.045 172.526 891.045 136.316C891.045 100.105 891.15 85.1579 891.255 103.158C891.465 121.158 891.465 150.737 891.255 168.947Z" fill="white"/>
<path d="M805.093 126.842C804.882 130 804.777 127.684 804.777 121.579C804.777 115.474 804.882 112.842 805.093 115.789C805.303 118.632 805.303 123.684 805.093 126.842Z" fill="white"/>
<path d="M846.073 173.158C845.968 179.789 845.758 174.632 845.758 161.579C845.758 148.526 845.968 143.053 846.073 149.474C846.283 155.895 846.283 166.526 846.073 173.158Z" fill="white"/>
<path d="M846.073 196.316C845.862 198.316 845.652 196.421 845.652 192.105C845.652 187.79 845.862 186.105 846.073 188.421C846.283 190.737 846.283 194.316 846.073 196.316Z" fill="white"/>
<path d="M187.035 201.684L189.557 198.947C190.923 197.474 192.289 196.316 192.499 196.316C192.709 196.316 192.814 197.474 192.814 198.947C192.814 201.158 192.289 201.579 187.035 201.684Z" fill="white"/>
<path d="M410.321 149.684C398.447 149.894 378.588 149.894 366.189 149.684C353.79 149.579 363.457 149.474 387.73 149.474C412.002 149.474 422.194 149.579 410.321 149.684Z" fill="white"/>
<path d="M344.858 161.579C344.648 164.211 344.438 162.526 344.438 157.895C344.438 153.263 344.648 151.158 344.858 153.158C345.068 155.158 345.068 158.947 344.858 161.579Z" fill="white"/>
<path d="M406.119 166.526C394.246 166.736 375.332 166.736 364.089 166.526C352.846 166.421 362.513 166.316 385.63 166.316C408.746 166.316 417.993 166.421 406.119 166.526Z" fill="white"/>
</svg>
