<svg width="219" height="219" viewBox="0 0 219 219" fill="none" xmlns="http://www.w3.org/2000/svg">
<path d="M109.641 0.730469C49.6647 0.730469 0.988281 49.4069 0.988281 109.383C0.988281 169.36 49.6647 218.036 109.641 218.036C169.617 218.036 218.294 169.36 218.294 109.383C218.294 49.4069 169.617 0.730469 109.641 0.730469ZM160.056 74.6144C158.426 91.7815 151.364 133.504 147.778 152.736C146.257 160.885 143.215 163.601 140.39 163.927C134.088 164.47 129.307 159.798 123.223 155.778C113.661 149.476 108.229 145.565 98.9931 139.48C88.2365 132.418 95.1903 128.506 101.383 122.204C103.013 120.575 130.828 95.2584 131.372 92.9767C131.447 92.6311 131.437 92.2723 131.342 91.9315C131.248 91.5907 131.071 91.2781 130.828 91.021C130.176 90.4777 129.307 90.695 128.547 90.8037C127.569 91.021 112.357 101.126 82.6952 121.118C78.3491 124.051 74.4376 125.573 70.9607 125.464C67.0492 125.355 59.6608 123.291 54.1195 121.444C47.2744 119.271 41.9504 118.076 42.385 114.273C42.6023 112.317 45.3186 110.361 50.4253 108.297C82.1519 94.4979 103.231 85.371 113.77 81.0249C143.975 68.4212 150.169 66.2481 154.297 66.2481C155.167 66.2481 157.231 66.4654 158.535 67.552C159.621 68.4212 159.947 69.6164 160.056 70.4856C159.947 71.1375 160.165 73.0933 160.056 74.6144Z" fill="white"/>
</svg>
