<svg width="219" height="219" viewBox="0 0 219 219" fill="none" xmlns="http://www.w3.org/2000/svg">
<path d="M109.509 18.25C159.907 18.25 200.759 59.1027 200.759 109.5C200.759 159.898 159.907 200.75 109.509 200.75C93.3831 200.776 77.5411 196.509 63.6102 188.385L18.2954 200.75L30.6324 155.417C22.503 141.482 18.2321 125.633 18.2589 109.5C18.2589 59.1027 59.1116 18.25 109.509 18.25ZM78.4109 66.6125L76.5859 66.6855C75.4045 66.7575 74.2498 67.0679 73.1914 67.598C72.2017 68.1585 71.2979 68.8593 70.5087 69.6785C69.4137 70.7097 68.7932 71.6038 68.1271 72.4708C64.752 76.8589 62.9348 82.2465 62.9624 87.7825C62.9806 92.2538 64.1486 96.6063 65.9736 100.676C69.7057 108.907 75.8469 117.621 83.9499 125.697C85.9026 127.64 87.8189 129.593 89.8811 131.409C99.9496 140.274 111.948 146.666 124.921 150.079L130.104 150.873C131.792 150.964 133.48 150.836 135.178 150.754C137.835 150.617 140.43 149.897 142.779 148.647C143.974 148.031 145.14 147.361 146.273 146.638C146.273 146.638 146.666 146.383 147.414 145.818C148.646 144.905 149.404 144.257 150.426 143.189C151.183 142.405 151.84 141.483 152.341 140.434C153.054 138.946 153.765 136.109 154.057 133.745C154.276 131.938 154.213 130.953 154.185 130.342C154.149 129.365 153.337 128.352 152.451 127.923L147.141 125.542C147.141 125.542 139.202 122.083 134.347 119.875C133.839 119.653 133.295 119.527 132.741 119.501C132.117 119.437 131.486 119.507 130.891 119.707C130.296 119.907 129.751 120.232 129.292 120.66C129.246 120.642 128.635 121.162 122.038 129.155C121.659 129.664 121.137 130.049 120.539 130.26C119.941 130.471 119.294 130.5 118.68 130.342C118.085 130.182 117.503 129.981 116.937 129.739C115.805 129.265 115.413 129.082 114.637 128.754C109.4 126.468 104.551 123.381 100.265 119.601C99.1156 118.598 98.0479 117.503 96.9529 116.444C93.3631 113.006 90.2344 109.117 87.6454 104.874L87.1071 104.007C86.7204 103.424 86.4078 102.796 86.1764 102.136C85.8296 100.795 86.7329 99.718 86.7329 99.718C86.7329 99.718 88.9504 97.2908 89.9814 95.9768C90.9852 94.6993 91.8339 93.4583 92.3814 92.5732C93.4581 90.8394 93.7957 89.06 93.2299 87.6822C90.6749 81.4407 88.0287 75.2265 85.3094 69.058C84.7711 67.8353 83.1742 66.9592 81.7234 66.7858C81.2306 66.7311 80.7379 66.6763 80.2451 66.6398C79.0197 66.5791 77.7917 66.5912 76.5677 66.6764L78.4019 66.6033L78.4109 66.6125Z" fill="white"/>
</svg>
