<svg width="268" height="268" viewBox="0 0 268 268" fill="none" xmlns="http://www.w3.org/2000/svg">
<path d="M134.011 22.334C195.685 22.334 245.677 72.3272 245.677 134.001C245.677 195.675 195.685 245.667 134.011 245.667C114.277 245.699 94.8901 240.477 77.8422 230.536L22.3886 245.667L37.4859 190.191C27.5376 173.138 22.311 153.743 22.3439 134.001C22.3439 72.3272 72.3372 22.334 134.011 22.334ZM95.9546 81.5173L93.7212 81.6066C92.2755 81.6947 90.8624 82.0746 89.5672 82.7233C88.3561 83.4092 87.2501 84.2668 86.2842 85.2693C84.9442 86.5312 84.1849 87.6254 83.3698 88.6863C79.2396 94.0563 77.0157 100.649 77.0495 107.424C77.0718 112.896 78.5012 118.222 80.7345 123.202C85.3016 133.275 92.8168 143.939 102.733 153.821C105.122 156.2 107.467 158.59 109.991 160.812C122.312 171.66 136.995 179.482 152.871 183.659L159.214 184.631C161.28 184.742 163.345 184.585 165.422 184.485C168.675 184.317 171.85 183.436 174.724 181.907C176.187 181.153 177.614 180.332 179.001 179.448C179.001 179.448 179.481 179.135 180.396 178.444C181.904 177.327 182.831 176.535 184.082 175.228C185.009 174.268 185.813 173.14 186.426 171.856C187.298 170.036 188.168 166.563 188.526 163.67C188.794 161.459 188.717 160.254 188.683 159.505C188.638 158.311 187.645 157.071 186.56 156.546L180.062 153.632C180.062 153.632 170.347 149.4 164.406 146.697C163.785 146.426 163.119 146.271 162.441 146.239C161.677 146.161 160.905 146.247 160.177 146.491C159.449 146.736 158.782 147.134 158.22 147.657C158.164 147.635 157.416 148.272 149.342 158.054C148.879 158.676 148.241 159.147 147.509 159.405C146.777 159.664 145.985 159.699 145.233 159.505C144.506 159.31 143.793 159.064 143.1 158.768C141.716 158.188 141.236 157.964 140.286 157.562C133.877 154.766 127.944 150.987 122.699 146.362C121.292 145.134 119.985 143.794 118.645 142.498C114.252 138.291 110.424 133.532 107.255 128.339L106.596 127.278C106.123 126.565 105.741 125.796 105.457 124.989C105.033 123.348 106.139 122.03 106.139 122.03C106.139 122.03 108.852 119.06 110.114 117.452C111.342 115.888 112.381 114.37 113.051 113.287C114.368 111.165 114.782 108.987 114.089 107.301C110.963 99.6632 107.724 92.0586 104.397 84.51C103.738 83.0136 101.784 81.9416 100.008 81.7294C99.4052 81.6624 98.8022 81.5954 98.1992 81.5507C96.6996 81.4764 95.1969 81.4912 93.6989 81.5956L95.9435 81.5061L95.9546 81.5173Z" fill="white"/>
</svg>
