<svg width="219" height="219" viewBox="0 0 219 219" fill="none" xmlns="http://www.w3.org/2000/svg">
<path d="M152.594 128.299C150.263 127.101 138.65 121.412 136.49 120.642C134.33 119.83 132.747 119.445 131.186 121.84C129.604 124.214 125.112 129.497 123.701 131.101C122.332 132.683 120.942 132.876 118.611 131.699C104.752 124.77 95.6629 119.338 86.5308 103.661C84.1141 99.491 88.9475 99.7904 93.4601 90.7866C94.23 89.204 93.845 87.8566 93.2462 86.659C92.6474 85.4613 87.9423 73.8697 85.9747 69.1433C84.0713 64.5451 82.1037 65.1867 80.6708 65.1012C79.3021 65.0156 77.7408 65.0156 76.1582 65.0156C74.5756 65.0156 72.0306 65.6145 69.8705 67.9456C67.7105 70.3195 61.6152 76.0298 61.6152 87.6214C61.6152 99.213 70.063 110.441 71.2179 112.024C72.4155 113.606 87.8354 137.388 111.51 147.633C126.481 154.091 132.341 154.647 139.826 153.535C144.382 152.851 153.771 147.846 155.717 142.307C157.663 136.789 157.663 132.063 157.086 131.079C156.508 130.031 154.925 129.432 152.594 128.299Z" fill="white"/>
<path d="M197.87 72.3727C193.037 60.888 186.107 50.5796 177.275 41.7255C168.442 32.8928 158.134 25.9421 146.628 21.1301C134.865 16.1897 122.375 13.6875 109.5 13.6875H109.073C96.1122 13.7517 83.5582 16.3181 71.7527 21.3653C60.3536 26.2415 50.1307 33.1708 41.3835 42.0035C32.6364 50.8362 25.7712 61.1019 21.0234 72.5438C16.1044 84.392 13.6236 96.9888 13.6877 109.949C13.7519 124.791 17.3021 139.527 23.9534 152.701V185.209C23.9534 190.641 28.359 195.047 33.7913 195.047H66.3205C79.4947 201.698 94.2301 205.248 109.073 205.312H109.522C122.332 205.312 134.758 202.832 146.456 197.977C157.898 193.208 168.185 186.364 176.997 177.617C185.829 168.87 192.78 158.647 197.635 147.248C202.682 135.442 205.249 122.888 205.313 109.928C205.377 96.9032 202.853 84.2637 197.87 72.3727ZM165.555 166.046C150.563 180.889 130.673 189.059 109.5 189.059H109.137C96.2405 188.994 83.4298 185.786 72.1163 179.755L70.3198 178.793H40.2073V148.68L39.2449 146.884C33.2138 135.57 30.0058 122.76 29.9416 109.864C29.8561 88.541 38.0044 68.523 52.9538 53.4454C67.8817 38.3678 87.8355 30.027 109.158 29.9414H109.522C120.215 29.9414 130.588 32.0159 140.361 36.1222C149.9 40.1215 158.454 45.8745 165.811 53.2315C173.147 60.5672 178.922 69.1433 182.921 78.6817C187.07 88.5624 189.144 99.0419 189.102 109.864C188.973 131.165 180.611 151.119 165.555 166.046Z" fill="white"/>
</svg>
